<?xml version="1.0" standalone="no"?>
<!DOCTYPE svg PUBLIC "-//W3C//DTD SVG 20010904//EN"
 "http://www.w3.org/TR/2001/REC-SVG-20010904/DTD/svg10.dtd">
<svg version="1.0" xmlns="http://www.w3.org/2000/svg"
 width="512.000000pt" height="512.000000pt" viewBox="0 0 512.000000 512.000000"
 preserveAspectRatio="xMidYMid meet">
<metadata>
Created by potrace 1.16, written by Peter Selinger 2001-2019
</metadata>
<g transform="translate(0.000000,512.000000) scale(0.100000,-0.100000)"
fill="#000000" stroke="none">
<path d="M1435 5074 c-188 -21 -425 -105 -715 -255 -87 -45 -149 -84 -174
-110 -37 -40 -38 -43 -33 -95 4 -36 18 -77 40 -118 20 -36 38 -85 42 -117 11
-79 38 -124 129 -215 97 -98 193 -161 338 -225 248 -109 359 -254 326 -428 -5
-30 -34 -106 -65 -170 -77 -163 -109 -251 -134 -382 -37 -190 -25 -439 27
-564 8 -19 46 -208 84 -421 l71 -386 -38 -87 c-37 -84 -38 -89 -38 -206 0
-100 4 -132 24 -190 53 -157 165 -334 305 -482 l66 -70 -228 -6 c-251 -6 -299
-14 -418 -72 -72 -35 -156 -101 -176 -138 -15 -29 -28 -87 -18 -87 4 0 15 9
25 20 17 19 18 19 38 -6 18 -24 25 -26 66 -21 35 4 52 1 70 -12 23 -17 19 -18
-135 -25 -222 -9 -637 -34 -709 -42 -53 -6 -57 -8 -31 -15 49 -14 773 -51
1306 -68 179 -6 295 -14 312 -21 19 -9 38 -9 79 -1 36 8 56 8 63 1 13 -13 75
-13 115 1 25 9 38 8 68 -6 33 -16 44 -16 88 -5 35 8 214 14 590 20 502 7 749
14 1435 40 307 12 601 28 680 37 39 4 49 8 35 13 -25 9 -280 28 -498 36 -92 4
-164 10 -160 14 4 4 28 12 53 19 63 18 145 61 216 114 156 115 151 281 -12
437 -71 69 -153 111 -219 113 -55 2 -73 -12 -57 -48 20 -43 15 -99 -10 -122
-72 -67 -276 -69 -441 -5 l-70 27 -3 139 c-10 388 -147 1047 -320 1533 -76
214 -189 476 -286 663 -44 85 -116 223 -159 306 -131 251 -211 470 -248 676
-30 161 -56 257 -100 365 -101 245 -224 394 -412 497 -85 47 -281 111 -399
130 -98 16 -315 27 -385 20z m325 -149 c52 -8 131 -24 175 -37 65 -19 80 -27
81 -43 2 -43 2 -43 54 -33 96 17 177 -28 225 -126 63 -129 10 -312 -104 -354
-17 -7 -45 -17 -61 -23 -39 -15 -54 -42 -40 -69 23 -42 111 -34 179 17 56 43
92 109 121 221 19 75 48 48 103 -100 31 -82 51 -161 82 -333 38 -206 102 -399
189 -573 44 -89 51 -112 33 -112 -36 0 -140 103 -230 230 -17 24 -17 24 -2
-15 44 -114 100 -190 261 -356 143 -146 216 -240 200 -256 -2 -3 -30 6 -61 21
-30 14 -52 20 -48 13 5 -7 41 -61 80 -120 92 -138 149 -242 211 -387 79 -185
199 -570 248 -800 25 -116 18 -119 -107 -36 -55 37 -102 66 -104 64 -2 -2 21
-42 52 -88 74 -115 177 -325 213 -435 62 -196 61 -388 -5 -522 -41 -83 -84
-124 -175 -167 -63 -30 -69 -31 -200 -31 -155 1 -217 14 -350 76 -248 116
-400 326 -400 555 0 211 137 382 370 460 58 19 180 24 255 11 38 -7 39 -7 20
9 -73 60 -259 110 -365 99 -69 -8 -153 -31 -202 -56 l-37 -19 66 98 c116 169
164 306 162 459 l0 68 -14 -37 c-27 -73 -98 -198 -136 -240 l-38 -43 -1 70 c0
39 -3 87 -7 108 l-6 39 -32 -84 c-39 -101 -101 -225 -166 -333 -26 -44 -67
-120 -91 -170 -41 -85 -43 -94 -48 -205 -5 -111 -6 -115 -27 -114 -18 0 -26
-9 -39 -43 -9 -24 -19 -43 -22 -43 -4 0 -16 12 -28 27 l-23 28 -22 -53 -22
-53 -33 32 c-37 36 -60 34 -70 -6 -9 -36 -19 -31 -42 23 -43 103 -36 399 18
707 72 415 66 534 -34 690 -50 78 -63 122 -74 240 l-8 80 -22 -58 c-32 -84
-55 -230 -47 -297 7 -57 39 -220 50 -255 12 -36 -65 57 -102 123 -81 145 -115
344 -94 549 42 393 132 561 445 826 81 70 164 176 186 241 11 30 20 81 20 112
l0 57 -52 -50 c-69 -64 -128 -98 -208 -119 -114 -29 -272 -3 -375 62 -22 14
-88 76 -147 137 l-107 112 6 -44 c5 -36 3 -47 -12 -58 -27 -19 -191 -17 -278
4 -100 24 -226 90 -254 132 -37 54 -31 86 27 147 43 45 50 59 50 93 0 33 -6
44 -36 69 l-35 29 63 40 c109 69 440 189 603 218 96 18 280 18 395 0z m2702
-4272 c33 -36 58 -86 58 -116 0 -40 -42 -89 -106 -124 -93 -50 -181 -66 -374
-67 -147 0 -178 3 -285 28 -66 15 -122 30 -124 32 -2 2 13 36 33 77 20 40 36
78 36 83 1 30 17 33 68 14 67 -26 208 -50 289 -50 143 0 289 50 340 117 14 18
28 33 32 33 4 0 19 -12 33 -27z m-1897 -323 c126 -20 220 -45 229 -59 15 -24
-77 -44 -320 -72 -202 -22 -267 -33 -316 -53 -34 -14 -64 -24 -66 -22 -8 9 21
46 73 95 31 28 54 51 52 51 -3 0 -36 -10 -73 -21 -72 -22 -169 -68 -216 -101
-16 -11 -28 -14 -28 -8 0 16 88 107 127 131 50 31 34 34 -43 9 -78 -25 -131
-50 -192 -92 -24 -17 -46 -28 -48 -25 -9 9 24 64 54 89 44 37 212 89 317 98
122 11 305 3 450 -20z M1355 4737 c-27 -13 -79 -46 -114 -72 -72 -53 -76 -46
43 -107 70 -35 86 -40 132 -36 57 5 101 30 183 105 31 27 43 45 36 51 -5 6
-39 25 -75 43 -85 43 -140 47 -205 16z M2066 4721 c-20 -22 -21 -36 -11 -139
7 -66 6 -76 -14 -102 -23 -32 -28 -76 -9 -82 20 -7 151 41 174 63 27 25 46 96
38 141 -20 104 -127 176 -178 119z M2145 3573 c-53 -7 -138 -34 -189 -60 -88
-45 -225 -192 -281 -302 -15 -29 -3 -21 72 48 158 145 308 242 463 297 l65 23
-50 -1 c-27 0 -63 -3 -80 -5z"/>
</g>
</svg>
